/* XPM */
static char *dea1a83ea70d472de6f8c7b143383300zwZRiOzIKBviJEJ3[] = {
/* columns rows colors chars-per-pixel */
"64 64 132 2 ",
"   c None",
".  c #000000",
"X  c #0B0300",
"o  c #090909",
"O  c #130400",
"+  c #1A0501",
"@  c #130E00",
"#  c #190800",
"$  c gray9",
"%  c #191817",
"&  c #1E1E1E",
"*  c #250600",
"=  c #2B0600",
"-  c #240A01",
";  c #300600",
":  c #3B0700",
">  c #330D02",
",  c #390800",
"<  c #3B1600",
"1  c #3E1C00",
"2  c #362B00",
"3  c #382C00",
"4  c #26211F",
"5  c #2D2C2B",
"6  c #3D3D3D",
"7  c #410700",
"8  c #440900",
"9  c #4C0B00",
"0  c #520900",
"q  c #5C0A00",
"w  c #4C1203",
"e  c #551402",
"r  c #5B1F00",
"t  c #620A00",
"y  c #6B0B00",
"u  c #730A00",
"i  c #7B0B00",
"p  c #661200",
"a  c #691300",
"s  c #641E00",
"d  c #6D1902",
"f  c #741A01",
"g  c #7E1D00",
"h  c #622500",
"j  c #782700",
"k  c #594600",
"l  c #7D6300",
"z  c #464646",
"x  c #616160",
"c  c #6C6B6B",
"v  c #737272",
"b  c #810A00",
"n  c #8B0B00",
"m  c #930B00",
"M  c #9B0A00",
"N  c #801E00",
"B  c #881D00",
"V  c #9C1C00",
"C  c #A50B00",
"Z  c #AC0C00",
"A  c #B40B00",
"S  c #BC0B00",
"D  c #A01D00",
"F  c #842D00",
"G  c #B92100",
"H  c #C20A00",
"J  c #CB0A00",
"K  c #D40A00",
"L  c #DC0900",
"P  c #E60700",
"I  c #EA0700",
"U  c #E30900",
"Y  c #EC0A00",
"T  c #F30700",
"R  c #F30B00",
"E  c #F31200",
"W  c #F41B00",
"Q  c #C52200",
"!  c #CE2200",
"~  c #D12400",
"^  c #F42200",
"/  c #F92000",
"(  c #F42900",
")  c #FA2F00",
"_  c #F23300",
"`  c #FD3600",
"'  c #F44000",
"]  c #FF4400",
"[  c #F44F00",
"{  c #FF5200",
"}  c #F45730",
"|  c #F45F39",
" . c #A46455",
".. c #F47454",
"X. c #C59C00",
"o. c #C89F00",
"O. c #DAAD00",
"+. c #E5B600",
"@. c #ECBB00",
"#. c #F4BB00",
"$. c #FFBD00",
"%. c #F4C100",
"&. c #FDC500",
"*. c #FFCB00",
"=. c #F3927C",
"-. c #929191",
";. c #989796",
":. c #A6A5A5",
">. c #AFAEAE",
",. c #B7B5B5",
"<. c #BAB9B8",
"1. c #C6988E",
"2. c #F39D89",
"3. c #F2B9AB",
"4. c #E8BBB1",
"5. c #CCCAC9",
"6. c #D3D2D2",
"7. c #DFDEDE",
"8. c #F0CCC2",
"9. c #EEDDDA",
"0. c #EDE1DD",
"q. c #E6E5E4",
"w. c #EEE4E2",
"e. c #EDE7E6",
"r. c #EDE8E7",
"t. c #EAE9E8",
"y. c #EDE9E8",
"u. c #EDE9E9",
"i. c #ECEAE9",
"p. c #ECEAEA",
"a. c #ECEBEA",
"s. c #ECEBEA",
/* pixels */
"                                                                                                                                ",
"          . . .                                                                                                                 ",
"  . . . . . . . .                                                                                                               ",
"  . . O.*.*.*.X.. . .                                                                                                           ",
"  . . . k *.*.*.*.. . .                                                                                                         ",
"      . . . *.*.*.*.. . .                                                                                                       ",
"        . . . o.*.*.*.. . .                                                                                                     ",
"            . . 3 *.*.*.@ . .                                                                                                   ",
"              . . . *.*.*.  . .                                                                                                 ",
"                . . . &.*.*.@.. .                                                                                               ",
"                    . . +.*.*.%.. .                                             . . .                                           ",
"                      . . O.*.*.%.. e . . . . . . . . . . . . . . . . . . . . . . . . .                                         ",
"                        . . +.*.*.#.. . . . . . . ; t 9 X . . . . . . . . . . . I T U . .                                       ",
"                        . . . 2 . N . + + . + . . O T T T T T T T T T T T T T T T T T M . X                                     ",
"                        . . . . . + . f g . . L . . . S T T T T T T T T T T T T T T T T X . <                                   ",
"                      . . g g g X . . g g B . u T J . . . . . . . . . . . . . . . . + T T . . h                                 ",
"                        . w w . . . g g g . . L T T P = . . . . . . . . . . . . . . . T T R . .                                 ",
"                        . . . . e g g g + . X R T T T 9 . .                     . . S T T T R . .                               ",
"                        . . . O g g g O . . ~ [ T T T T . . .                 . . . T T T T T R . . .                           ",
"                      . . 9 . . . X . . . ~ ~   R T T O . O . . . . . . . . . . . P T T T T T T T . . .                         ",
"                    . . . . ~ D . . . O ~ ~ ~ O y T T . . . U 7 X . , n Z A A K . . Y T T T T T T E . . .                       ",
"                  . .   . . ~ ~ ~ ~ Q ~ ~ ~ 9 . i T K . O . T R T T T T T T T T K . . T T T T T T T e h .                       ",
"                . . .     . a ~ ~ ~ ~ ~ ~ ~ . . T T . . X . T T T T T T T T T T T n . . T T T T T . . F .                       ",
"              > + O . .   . . ~ ~ ~ ~ ~ ~ 7 . m T T . O . . T T T T T T T T T T T T t . X T T T . . 0 F .                       ",
"              . . g . .   . . ~ ~ ~ ~ ~ ! . . T T O . R . . T T T T T T T T T T T T T * . T X q . + E F .                       ",
"            . . g g . .     . G ~ ~ ~ ~ . . L T Y . . T . . T T T T T T T T T T T T T I n = . . . T R j .                       ",
"          . . d N g . .     . , ~ ~ ~ 9 . + T T . . P T . . . . ; 0 y i b 9 X . . . . . . . . . L T T r .                       ",
"        . . f g g . .       . . ~ V p . . T T 9 . 7 T T T q . . . . . . . . . . . . + M L T T T T T T > .                       ",
"        . . g d - . .         . . . . . T T S . . T T T T T T T T T T T U T T T T T T T T T T S . 8 T # .                       ",
"          . . . . .           . . . y T T T H X T T R T T T T T T T T T T T T T T T T T T T T . . . T - .                       ",
"            .                   . . T T T T X . T q . i T T T T T T T T T E R T T T T T T T T . . X T > .                       ",
"                                . ; T T T T . . T X . . T T T T T W 0.a.a.a.a.a.a._ R R T T . . . . : . .                       ",
"                                . t T T T T . . T A . . T R T T E a.a.a.a.a.a.a.a.a.3.T R . . . . . C . .                       ",
"                                . q T T T T . . T . . . . L T T a.a.9.r.a.a.a.a.a.a.a.... . X T T T I . .                       ",
"                                . 9 T T T T . . T . . i . . C 2.a.a.a.a.a.a.a.a.a.a.a.a.+ H T T T T T + .                       ",
"                                . 9 T T T T . . T T T T L . . a.a.-.6 t.a.a.a.a.$ . O a.a.T T T T T T O .                       ",
"                                . 9 *.*.*.&.. . T T T T T T J a.6.. . . a.a.a.a.. . . ;.a.E T T T T T O .                       ",
"                                . r *.*.*.*.. . T T T T T T E a.c . . . q.a.a.a.. . . 5.a.W T T T T T O .                       ",
"                                . 1 *.$.*.*.. . T T T T T T W a.c . . . 6.a.a.a.z . 5 a.a.T T T T T T O .                       ",
"                                . O *.$.*.*.. . T T T T T T T a.a.o . . a.a.a.a.a.a.8.a.a.T T T T T T X .                       ",
"                                . X *.$.*.*.. . T T T T T T T w.a.a.6.q.a.a.a.a.a.a.a.a.^ T T T T T T . .                       ",
"                                . X *.$.*.*.X . T T T T T T T R <.a.a.a.a.a.a.a.a.a.a. .. . T T T T T . .                       ",
"                                . . *.&.*.*.* . T T T T T T P . . q.a.a.a.a.a.a.a.a.| U . . . * T R T . .                       ",
"                                . . *.&.*.*.8 . T T T T T A . . . =.a.% o v . :.. e.T T T = . . . . . . .                       ",
"                                . . &.@ l &.q . T T L + . . . . T ' a.. . & . x . 7.R T T T T . . . . . .                       ",
"                                . . . . * T y . T Y . . . . . T T ( a.. . 6 . 5.. ,.T T T T T . . u R . .                       ",
"                                . . T T T T u . T n . . . . P T T R a.4 . >.. t.. 4.T T T T T i . L T . .                       ",
"                                . . T T T T M . K T X . 7 . . T T T T T } 1.S T T T T T T T T T T T R . .                       ",
"                                . . T T T T J . K T T T K . . T T T T T T T T T T T T T T T T T T T T . .                       ",
"                                . . T T T T L . J T T T T T T T T T T T T T T T T T T T T T T T T T T . .                       ",
"                                  . J T T T R . X T T T T T T T T T T T T T T T T T T T T T T T T T T . .                       ",
"                                  . X R ) T T X . . A T T T T T T T T T T T T T T T T T T T T T T T T . .                       ",
"                                  . . . { ` T T 0 . . R T T T T T T T T T T T T T T T T T T T T T T T . .                       ",
"                                    . . . s ] T T T T T T T T T T T T T T T T T T T T T T T T T T T T q .                       ",
"                                        . . . . Z T W T T T T T T T T T T T T T T T T T T T T T T T T K .                       ",
"                                            . . . . C T T T T / R T T T T T T T T T L L H q X . . . . . .                       ",
"                                                . . . . . . . . . . . . . . . . . . . . . . . . . . . .                         ",
"                                                      . . . . . . . . . . . . . . .                                             ",
"                                                                                                                                ",
"                                                                                                                                ",
"                                                                                                                                ",
"                                                                                                                                ",
"                                                                                                                                ",
"                                                                                                                                "
};
