/* XPM */
static char *e75524e50be543e3e3bcbd1336246517Sx0xcu94wPivlzfm[] = {
/* columns rows colors chars-per-pixel */
"64 64 28 1 ",
"  c None",
". c black",
"X c gray6",
"o c #131313",
"O c gray8",
"+ c #171716",
"@ c #181818",
"# c #252525",
"$ c #282828",
"% c #E1E0DF",
"& c #E2E1DF",
"* c #E2E1E0",
"= c #E5E4E2",
"- c #E5E4E3",
"; c #E6E4E3",
": c #E5E4E4",
"> c #E6E5E4",
", c #E7E5E4",
"< c #E8E7E6",
"1 c #E9E7E6",
"2 c #E9E8E7",
"3 c #EAE8E7",
"4 c #EAE9E8",
"5 c #EBE9E8",
"6 c #EBEAE9",
"7 c #ECEAE9",
"8 c #ECEBEA",
"9 c #EDECEC",
/* pixels */
"                              9996....9996....                  ",
"                              999;....999,....                  ",
"                              9999....9999..+.                  ",
"                              9999....9999....                  ",
"                              ....997,....9979                  ",
"                              ....9999....9999                  ",
"                              ....9999....9999                  ",
"                              ....9999....9999                  ",
"                              999%....999%....                  ",
"                              9999....9999....                  ",
"                              9993....9993..o.                  ",
"                              9999$...9999$...                  ",
"                              ....9997....9999                  ",
"                              ....9999....9999                  ",
"                              ....9991.Xo.9999                  ",
"                              ....9999....9999                  ",
"                              997;....997,....                  ",
"                              9997....9996....                  ",
"                              9999....9999..+.                  ",
"                              7996....6996....                  ",
"                              ....9,93....9,99                  ",
"                              ....999*....9999                  ",
"                              ....9997.@..9999                  ",
"                              X...9999X...9999                  ",
"                              9719....9619....                  ",
"                              999;....999;....                  ",
"                              9991....9991....                  ",
"                              9999....9999....                  ",
"                              ....69%3....69*3                  ",
"                              ....;999....,999                  ",
"                              ....9999.+..9999                  ",
"                              ....9999....9999                  ",
"                              9799....,799....                  ",
"                              9999....9999....                  ",
"                              9999....9999....                  ",
"                              9999....9999....                  ",
"                              ....%999....%999                  ",
"                              ....9999....9999                  ",
"                              ....3999.o..3999                  ",
"                              ...$9999...$9999                  ",
"                              9999....7999....                  ",
"                              9999....9999....                  ",
"                              9999....1999.oX.                  ",
"                              9999....9999....                  ",
"                              ....;799....,799                  ",
"                              ....7999....6999                  ",
"                              ....9999.+..9999                  ",
"                              ....6997....6996                  ",
"                              99,9....39,9....                  ",
"                              9999....%999....                  ",
"                              9999....7999..@.                  ",
"                              9999...X9999...X                  ",
"                              ....9179....9169                  ",
"                              ....9999....9999                  ",
"                              ....1999....1999                  ",
"                              ....7999....6999                  ",
"                              9999....9999....                  ",
"                              9999#...9999#...                  ",
"                              9999...X9999...X                  ",
"                              3999....3999....                  ",
"                              ....9999....9999                  ",
"                              ....9999....9999                  ",
"                              ....9999....9999                  ",
"                              ....9999....9999                  "
};
