/* XPM */
static char *_a2ea0f8b59349e5ea2ee885a96c4448qen39pPU2mOQhVcw[] = {
/* columns rows colors chars-per-pixel */
"64 64 174 2 ",
"   c None",
".  c #000000",
"X  c #0C0103",
"o  c #070709",
"O  c #0B0A0B",
"+  c #0D070B",
"@  c #130000",
"#  c #1A0002",
"$  c #1E000B",
"%  c #16020B",
"&  c #0F0F11",
"*  c #131414",
"=  c #1A1B1B",
"-  c #171818",
";  c #230100",
":  c #2D0001",
">  c #20000D",
",  c #2D0D00",
"<  c #3B0703",
"1  c #250113",
"2  c #2D0618",
"3  c #211F28",
"4  c #222222",
"5  c #2A2A2A",
"6  c #23222B",
"7  c #2B2A35",
"8  c #343434",
"9  c #3A3A3A",
"0  c #383737",
"q  c #460009",
"w  c #580208",
"e  c #461000",
"r  c #5E1402",
"t  c #63000E",
"y  c #6C1E02",
"u  c #721E05",
"i  c #7A0016",
"p  c #472300",
"a  c #6C2102",
"s  c #742205",
"d  c #792105",
"f  c #420021",
"g  c #500027",
"h  c #4F1B34",
"j  c #531F38",
"k  c #422C35",
"l  c #5D253E",
"z  c #6B4000",
"x  c #41413C",
"c  c #3A3946",
"v  c #672543",
"b  c #692D49",
"n  c #6A304B",
"m  c #404040",
"M  c #4C4C4C",
"N  c #4F5050",
"B  c #525252",
"V  c #575858",
"C  c #5C5C5C",
"Z  c #4B4A5C",
"A  c #4F4D61",
"S  c #5A596F",
"D  c #555469",
"F  c #615F77",
"G  c #636363",
"H  c #6C6C6C",
"J  c #7C6F6E",
"K  c #777777",
"L  c #797675",
"P  c #7C7C7C",
"I  c #811E05",
"U  c #890014",
"Y  c #9D001C",
"T  c #9C1A08",
"R  c #A21C08",
"E  c #A21108",
"W  c #A4001D",
"Q  c #AC001E",
"!  c #B1001F",
"~  c #832205",
"^  c #992607",
"/  c #893C05",
"(  c #953202",
")  c #A22208",
"_  c #A72607",
"`  c #A13005",
"'  c #A93D09",
"]  c #BC3D02",
"[  c #B30020",
"{  c #90392C",
"}  c #C23705",
"|  c #D43500",
" . c #ED2D00",
".. c #F73B00",
"X. c #BB5629",
"o. c #D34902",
"O. c #CD4913",
"+. c #D54E13",
"@. c #D55515",
"#. c #E34F02",
"$. c #FD4400",
"%. c #FA4B00",
"&. c #FE5500",
"*. c #FF5C00",
"=. c #F15600",
"-. c #E65C14",
";. c #CE6811",
":. c #FF6200",
">. c #FF6B00",
",. c #FC660B",
"<. c #FF7400",
"1. c #F47800",
"2. c #E36014",
"3. c #F46515",
"4. c #F86D16",
"5. c #FF7E16",
"6. c #FD7419",
"7. c #FF7B19",
"8. c #FC7717",
"9. c #D67B3E",
"0. c #FC7A21",
"q. c #E37B33",
"w. c #E56326",
"e. c #930046",
"r. c #A80051",
"t. c #B00055",
"y. c #C4005E",
"u. c #C80E6C",
"i. c #D70068",
"p. c #DC0071",
"a. c #DE1F7C",
"s. c #E7006D",
"d. c #ED0279",
"f. c #FB0077",
"g. c #FF007E",
"h. c #F3007C",
"j. c #C23375",
"k. c #B96F48",
"l. c #A67658",
"z. c #B07955",
"x. c #B6714A",
"c. c #86756D",
"v. c #8A786C",
"b. c #8D776B",
"n. c #967864",
"m. c #C1784B",
"M. c #FF8513",
"N. c #FF821A",
"B. c #CEC300",
"V. c #EAE800",
"C. c #F5ED00",
"Z. c #EAF400",
"A. c #F2F100",
"S. c #797795",
"D. c #807C9D",
"F. c #837FA1",
"G. c gray56",
"H. c #8E8AAE",
"J. c #9290AD",
"K. c #908DB1",
"L. c #ABABAB",
"P. c #B4B4B4",
"I. c #BBB8C6",
"U. c #B8B6C5",
"Y. c #C2BFC9",
"T. c #CFCCD0",
"R. c #D1CFD0",
"E. c #D9D5D5",
"W. c #DDDADB",
"Q. c #DFDCD7",
"!. c #E1DDD9",
"~. c #E2DFE1",
"^. c #E7E4E6",
"/. c #E7E4E6",
/* pixels */
"                                          $.>.%.                                                                                ",
"                          . . . . . . . . %.%.%.# . . . . . . . . . . . . . , $...... . . . . . . . .                           ",
"                          . w [ [ [ [ [ [ [ Q ! [ ! Q W ! ! ! [ [ ! ! i U : | .. .%.< Q [ [ Q t . w .                           ",
"                          . ! [ [ [ [ [ [ [ [ [ [ [ [ [ [ [ [ [ [ [ [ [ [ [ [ [ [ U e ; ! [ [ [ [ [ .                           ",
"                        # . ! [ [ [ [ [ ! Y . . . . . . . . . . . . . . . ; # # @ . . . . < [ [ [ [ . .                         ",
"                        . . [ [ ! . . . . . 5 V G C H H V 0 0 G H H H H H H H K K K = . . . W [ [ [ : .                         ",
"                        . . [ [ . . . . * K K K K L c.K K K K K K K K K l.7.7.L K K K K . . . q [ [ W .                         ",
"                        . . [ @ . . M K K ) L K K >.>.K K K K K K n.0.L 7.-.7.v.K K K K . .   . . q w .                         ",
"                      . . . . .   . @ { 1.&.J c.X.<.l.K K K K K K 7.7.7.O.E _ v.K K K K K . .     . . . .                       ",
"                        . .       . { ) 1.&.*.:.<.<.K K K c.K K K 7.q.7.y T 4.b.K K K K K . .     . . . .                       ",
"                                . . L ) 1.] &.:.>.:.l.K x.:.K K K 7.7.R a a 6.n.K K K K K - .                                   ",
"                                . . K ) ) a s ) *.*.:.3.>.>.K K K L 7.) ~ y @.m.7.7.z.K K 9 .                                   ",
"                                . m K ) ) z a a R :.*.:.3.K K K K K 7.) ) y I +.7.7.L K K 9 .                                   ",
"                                . G K ) ^ z / y ) &.*.w.K K K K 9.7.q.2.) y y ^ 7.0.K K K 0 .                                   ",
"                                . B :.:.#._ _ a d &.&.K K K K K 7.5.7.8.) ` y s 7.v.K K K 0 .                                   ",
"                                . 5 L ,.:.=.) a s &.3.K K K K K b.5.5.5.) ^ y ~ 7.b.K K K 5 .                                   ",
"                                . o K K ,.:.) a ~ &.k.K K K K K K N.M.M.R u y ^ 7.z.K K K 8 .                                   ",
"                                . . K K K :.o.a _ :.L K K K K K K K M.M._ u y ) 7.n.K K K o .                                   ",
"                                . . K K K :.( a :.:.K K K K K K K K K M.7.' a 5.7.K K K . . .                                   ",
"                                . . K K L :.:.` } } 5 = . . . . . . . ;.8.X . / p N 9 . . 8 .                                   ",
"                                . . K K K _ ` . r ; . . . . . . . . O . . . . . . . . . K 0 .                                   ",
"                                . . . K B . C ^.^.^.^.^.^.^.^.^.^.^.^.^.^.^.^.R.o . m K K m .                                   ",
"                                . . . . 4 . !.^.^.^.^.^.^.^.^.^.^.^.^.^.^.^.^.^.E.. K K K M .                                   ",
"                                . o H . . . ^.^.^.^.^.^.^.^.^.~.W.^.^.^.^.^.^.^.^.. K K K B .                                   ",
"                                . . K * o . ^.^.^.^.^.^.^.^.^.^.^.^.^.^.^.^.^.^.^.. V K K B .                                   ",
"                                . . K K & . ^.^.^.^.^.^.^.^.^.^.^.^.^.^.^.^.^.^.^.. 8 K K B .                                   ",
"                                . . K K o . ^.^.^.^.^.^.^.^.^.^.^.^.^.^.^.^.^.^.^.. 5 K K G .                                   ",
"                                . . K K . . !.^.^.^.^.^.^.^.^.^.^.^.^.^.^.^.^.^.^.. 5 K K H .                                   ",
"                                . . K K o . W.^.^.^.^.^.^.^.^.^.^.^.^.^.^.^.^.^.^.. = . . . . .                                 ",
"                                . . O C = . ^.^.^.^.^.^.^.^.^.^.^.^.^.^.^.^.^.^.^.. . . . . .                                   ",
"                                . . . . 0 . ^.^.^.^.^.^.^.^.^.^.^.^.^.P.L.L.L.^.!.. 5 K K H .                                   ",
"                                . . K K G . P.P.K 9 = P ^.^.^.^.^.^.W.G.. . . K L.. 5 K K H .                                   ",
"                                . . K K K . o . . . . . . ^.^.^.^.^.. . . . . . . . 4 K K H .                                   ",
"                                . . K K K . . . . . . . . ~.^.^.^.9 . 5 . . . . . . O K K H .                                   ",
"                                . . K K K . . . . . . . . ^.^.^.^.. . . . . . . . . o K K H .                                   ",
"                          . . . . . K K K K K   . . . .   ^.^.^.^.P 0 . . . .     . C K K H . . . . .                           ",
"                        . . . . . . K K K O . . . . . . . . . . . . . . . . . . . . . K K H . . . . .                           ",
"                        . . . . 9 . * K m . . 7 D D Z 3 6 c c F D.S A S.F.F.S.S.J.S . . K H . . . . . .                         ",
"                        . . . . . . * 8 o . H.H.H.H.H.H.H.H.H.H.H.H.H.H.H.H.H.I.!.H.. . 8 . . . . . . .                         ",
"                        . . . . . . . . . . 7 H.H.H.H.H.H.H.H.H.H.H.H.H.H.H.H.!.!.H.. . . . . . . . .                           ",
"                                  . * d.g.. . H.H.H.H.H.H.H.H.H.H.H.H.H.H.H.H.!.U.H.. k g.g.. . . . .                           ",
"                                  . - g.g.0 . H.H.H.H.H.H.H.H.H.H.H.H.H.H.H.I.!.H.S.. g.g.g..                                   ",
"                                  . = g.g.d.. o H.H.H.H.H.E.T.Y.H.I.!.!.Q.H.K.U.H.6 . g.g.g..                                   ",
"                                  . = g.g.g.. . H.H.H.H.K.!.!.!.!.!.!.!.!.H.H.H.H.. . g.g.g..                                   ",
"                                  . 5 g.g.g.p.. . . . . . . . . 5 . . . . . . . . f.g.g.g.g..                                   ",
"                                  . 4 g.g.g.g.# v j . + . . . . . . . X X . . . g.g.g.g.g.g..                                   ",
"                                  . - g.g.g.g.g.X v v v v v v v v v v v v n . g.g.g.g.g.g.g..                                   ",
"                                  . . g.g.g.g.g.s.% v v v v v v v v v v v . f.g.g.g.g.g.g.g..                                   ",
"                                  . . g.g.g.g.g.g.$ . v v v v v v n v v . f g.g.g.g.g.g.g.g..                                   ",
"                                  . . g.g.g.g.g.g.g.. l v v v v v v v n . g.g.g.g.g.g.g.g.g..                                   ",
"                                  . . g.g.g.g.g.g.g.r.. v v v v v v v v . g.g.g.g.g.g.g.g.g..                                   ",
"                                  . . g.g.g.g.g.g.g.s.. h v v v v v v v 1 g.g.g.g.g.g.g.g.g..                                   ",
"                                  . . a.g.g.g.g.g.g.g.. X v v v v v v v 1 g.g.g.g.g.g.g.g.g.. .                                 ",
"                                    . j.g.h.g.g.g.g.g.. . v v v v v v v 1 g.g.g.g.g.g.g.t.. . .                                 ",
"                                    . o g.g.g.g.g.g.g.e.* v v v v v v v o g.g.g.g.g.g.> . . . .                                 ",
"                                    M . . 2 f.g.g.g.g.y.O v v v v v v v o g.g.g.g.g.X .     . .                                 ",
"                                    . . C.A.. r.g.g.g.i.. v v v v v v v o g.g.g.g.u.. x A.A.. .                                 ",
"                                    . . A.Z.A.. g.g.g.d.. v v v v b v v . g.g.g.g.. . A.A.A.. .                                 ",
"                                    . . V.Z.A.. g g.g.f.. v v v v v v v . g.g.g.g.. B.C.C.. .                                   ",
"                                      . .     . . g.g.> 2 v v v v v v v * g.g.g.g.. C.V.. .                                     ",
"                                        . . . . . . . . . . . . . . . . . . $ . . . . . .                                       ",
"                                            . . . . . . . .       . . . . . . . . . .                                           ",
"                                                      . . .         . . . . . .                                                 ",
"                                                      . . . . . . . . . . . .                                                   "
};
