/* XPM */
static char *_50afd1aa3eb4d96efcdd31429f32b1anLbTnUTjrtN7amT1[] = {
/* columns rows colors chars-per-pixel */
"64 64 173 2 ",
"   c None",
".  c #000000",
"X  c #0C0103",
"o  c #070709",
"O  c #0B0A0B",
"+  c #0D070B",
"@  c #130000",
"#  c #1A0002",
"$  c #1E000B",
"%  c #16020B",
"&  c #0F0F11",
"*  c #131414",
"=  c #1A1B1B",
"-  c #171818",
";  c #230100",
":  c #2D0001",
">  c #20000D",
",  c #2D0D00",
"<  c #3B0703",
"1  c #250113",
"2  c #2D0618",
"3  c #211F28",
"4  c #222222",
"5  c #2A2A2A",
"6  c #23222B",
"7  c #2B2A35",
"8  c #343434",
"9  c #3A3A3A",
"0  c #383737",
"q  c #460009",
"w  c #580208",
"e  c #461000",
"r  c #5E1402",
"t  c #63000E",
"y  c #6C1E02",
"u  c #721E05",
"i  c #7A0016",
"p  c #472300",
"a  c #6C2102",
"s  c #742205",
"d  c #792105",
"f  c #420021",
"g  c #500027",
"h  c #4F1B34",
"j  c #531F38",
"k  c #422C35",
"l  c #5D253E",
"z  c #6B4000",
"x  c #41413C",
"c  c #3A3946",
"v  c #672543",
"b  c #692D49",
"n  c #6A304B",
"m  c #404040",
"M  c #4C4C4C",
"N  c #4F5050",
"B  c #525252",
"V  c #575858",
"C  c #5C5C5C",
"Z  c #4B4A5C",
"A  c #4F4D61",
"S  c #5A596F",
"D  c #555469",
"F  c #615F77",
"G  c #636363",
"H  c #6C6C6C",
"J  c #7C6F6E",
"K  c #777777",
"L  c #797675",
"P  c #7C7C7C",
"I  c #811E05",
"U  c #890014",
"Y  c #9D001C",
"T  c #9C1A08",
"R  c #A21C08",
"E  c #A21108",
"W  c #A4001D",
"Q  c #AC001E",
"!  c #B1001F",
"~  c #832205",
"^  c #992607",
"/  c #893C05",
"(  c #953202",
")  c #A22208",
"_  c #A72607",
"`  c #A13005",
"'  c #A93D09",
"]  c #BC3D02",
"[  c #B30020",
"{  c #90392C",
"}  c #C23705",
"|  c #D43500",
" . c #ED2D00",
".. c #F73B00",
"X. c #BB5629",
"o. c #D34902",
"O. c #CD4913",
"+. c #D54E13",
"@. c #D55515",
"#. c #E34F02",
"$. c #FD4400",
"%. c #FA4B00",
"&. c #FE5500",
"*. c #FF5C00",
"=. c #F15600",
"-. c #E65C14",
";. c #CE6811",
":. c #FF6200",
">. c #FF6B00",
",. c #FC660B",
"<. c #FF7400",
"1. c #F47800",
"2. c #E36014",
"3. c #F46515",
"4. c #F86D16",
"5. c #FF7E16",
"6. c #FD7419",
"7. c #FF7B19",
"8. c #FC7717",
"9. c #D67B3E",
"0. c #FC7A21",
"q. c #E37B33",
"w. c #E56326",
"e. c #930046",
"r. c #A80051",
"t. c #B00055",
"y. c #C4005E",
"u. c #C80E6C",
"i. c #D70068",
"p. c #DC0071",
"a. c #DE1F7C",
"s. c #E7006D",
"d. c #ED0279",
"f. c #FB0077",
"g. c #FF007E",
"h. c #F3007C",
"j. c #C23375",
"k. c #B96F48",
"l. c #A67658",
"z. c #B07955",
"x. c #B6714A",
"c. c #86756D",
"v. c #8A786C",
"b. c #8D776B",
"n. c #967864",
"m. c #C1784B",
"M. c #FF8513",
"N. c #FF821A",
"B. c #CEC300",
"V. c #EAE800",
"C. c #F5ED00",
"Z. c #EAF400",
"A. c #F2F100",
"S. c #797795",
"D. c #807C9D",
"F. c #837FA1",
"G. c gray56",
"H. c #8E8AAE",
"J. c #9290AD",
"K. c #908DB1",
"L. c #ABABAB",
"P. c #B4B4B4",
"I. c #BBB8C6",
"U. c #B8B6C5",
"Y. c #C2BFC9",
"T. c #CFCCD0",
"R. c #D1CFD0",
"E. c #D9D5D5",
"W. c #DDDADB",
"Q. c #DFDCD7",
"!. c #E1DDD9",
"~. c #E2DFE1",
"^. c #E7E4E6",
/* pixels */
"                                                                                                                                ",
"                                                                                                                                ",
"                                                                                                                                ",
"                                                                                                                                ",
"                                                                                                                                ",
"                                                                                                                                ",
"                                                                                                                                ",
"                                                                                                                                ",
"                                                                                                                                ",
"                                                                                                                                ",
"                                                                                                                                ",
"                . .                                                                                                             ",
"        . . . . . .                                                       . .                                                   ",
"  . . . . : W w . .                                                   . . . . . .                                               ",
"  . w [ [ [ [ q . .                                                   . . . . . .                                               ",
"  . . [ [ [ [ .                                                       . . . . . .                                               ",
"  . t [ [ [ q .                                         .             . . . . . .                       . . . . . .             ",
"  . Q [ [ W .   . . . . . . . . . . . . . . . . . . . . . . . . . . . . . . . . . . . . . . . . . . . . . . . . . . .           ",
"  . [ [ < . . . . . - 0 0 8 8 5 8 o . 8 8 m M B B B G H . . H H H H H H H H . . g.g.g.g.g.g.g.g.g.g.g.g.g.. .   A.A.. .         ",
"  . [ ! . . . . K K K K K K K K K K . . K K K K K K K K . . K K K K K K K K 8 . g.g.g.g.g.g.g.g.g.g.g.g.g.t..   A.A.C.. .       ",
"  . Q ; . . K K K K K K K K K K K K K . . K K K K K K K . . K K K K K K K . . . k g.g.g.g.g.g.g.g.g.g.g.g.g.> . x A.C.V..       ",
"  . < e . = K K K K K z.K K K K K K K 0 . m K K V 8 5 5 - . 5 5 4 O o C . . . . . . . . g.g.g.g.g.g.g.g.g.g.g.X . . B.C.. .     ",
"  ..%.U . K K K K K K 7.7.0.v.b.z.n.K N . . . . . . . . . . . . . . . . . S H.H.H.S.6 . f.g.g.g.g.g.g.g.g.g.g.g.u.. . . . .     ",
"  .. .[ @ K K K K K K 7.7.7.7.7.7.7.7.p . o E.^.^.^.^.^.^.^.!.L.. . .   . J.!.!.U.H.H.H.. g.g.g.g.g.g.g.g.g.g.g.g.g.g.g.. .     ",
"  $...[ # K K v.v.b.n.m.+.^ d ~ ^ ) 5./ . R.^.^.^.^.^.^.^.^.^.K . . .   . S.I.!.!.!.U.H.. . g.g.g.g.g.g.g.g.g.g.g.g.g.g.. . .   ",
"  , | [ @ H 7.7._ 4.6.@.I y y y y y a . . ^.^.^.^.^.^.^.^.^.L.. . . . . . S.H.H.H.I.K.H.. . . f.g.g.g.g.g.g.g.g.g.g.g.g.$ . . . ",
"  . : [ ; H 7.-.E T a y y y ` ^ u u ' X . ^.^.^.^.^.^.^.^.^.L.. . . . . . F.H.H.H.H.H.H.. . n . f g.g.g.g.g.g.g.g.g.g.g.. . . . ",
"  . U [ . H l.7.O.y a ~ ) ) ) ) R _ 7.8.. ^.^.^.^.^.^.^.^.^.L.. . . . . . F.H.H.H.H.Q.!.. X v v . . . 1 1 1 o o o . . * . . . . ",
"  . i [ . H K L 7.7.R ) ) 2.8.5.M.M.M.;.. ^.^.^.^.^.^.^.^.^.P.G.. 5 . . . S.H.H.H.H.!.!.. X v v v n v v v v v v v v v v . . . . ",
"  . ! [ . H K 0.7.q.7.7.7.q.7.5.M.M.K . O ^.^.^.^.^.^.^.^.^.^.W.. . . 8 . A H.H.H.H.!.!.. . v v v v v v v v v v v v v v . . . . ",
"  . ! [ . H K n.7.7.7.K K 7.5.5.N.K K . . ^.^.^.^.^.^.^.^.^.^.^.^.9 . P . S H.H.H.H.I.!.. . v v n v v v v v v v v b v v . .   . ",
"  . [ [ . H K K K K K K K 9.7.b.K K K . . ^.^.W.^.^.^.^.^.^.^.^.^.^.^.^.. D.H.H.H.H.H.!.5 . v v v v v v v v v v v v v v .     . ",
"  . [ [ . G K K K K K K K K K K K K K . . ^.^.~.^.^.^.^.^.^.^.^.^.^.^.^.. F H.H.H.H.Y.!.. . v v v v v v v v v v v v v v .     . ",
"  . ! [ . 8 K K K K K K K K K K K K K . . ^.^.^.^.^.^.^.^.^.^.^.^.^.^.^.. c H.H.H.H.T.!.. . v v v v v v v v v v v v v v .     . ",
"  . ! [ . 8 K K K c.:.>.K K K K K K K . . ^.^.^.^.^.^.^.^.^.^.^.^.~.^.^.. c H.H.H.H.E.!.. . v v v v v v v v v v v v v v . . . . ",
"  . ! [ . V K K K K x.>.3.K K K K K K . . ^.^.^.^.^.^.^.^.^.^.^.. . .   . 6 H.H.H.H.H.K.. . v v v v v h X . * O . . . 2 . . . . ",
"  . W [ . H K K K K K 3.:.w.K K K K K - . ^.^.^.^.^.^.^.^.^.^.P . . . . . 3 H.H.H.H.H.H.. + v v v l . . . . e.y.i.d.f.> . . . . ",
"  . Q [ . H c.>.l.K l.:.*.*.&.3.k.K K 5 . ^.^.^.^.^.^.^.^.^.^.- . . . . . Z H.H.H.H.H.H.. . v v . . r.s.g.g.g.g.g.g.g.g.. .     ",
"  . ! [ . C K >.<.<.:.*.:.&.&.&.&.:.:.} ; ^.^.^.^.^.^.^.^.^.^.0 . . . . . D H.H.H.H.H.H.. j v % $ g.g.g.g.g.g.g.g.g.g.g.. .     ",
"  # [ [ . G K K X.<.>.*.R ) d d ~ _ :.} r ^.^.^.^.^.^.^.^.^.^.K . . . . . D H.H.H.H.H.H.. v X s.g.g.g.g.g.g.g.g.g.g.g . . .     ",
"%.%.! [ . V K K c.:.:.) a y a a a a a ` . ^.^.^.^.^.^.^.^.^.^.P.. . .   . 7 H.H.H.H.o . . # g.g.g.g.g.g.g.g.g.g.r.. . . . .     ",
">.%.Q [ . 5 K K J *.&.s a / ) ) ) o.( :.` C !.^.^.^.^.!.W.^.^.P.o . . K . . H.7 . . . . p.g.g.g.g.g.g.g.g.g.g.f.. A.A.  . .     ",
"$.%.[ [ Y . K ) &.&.] a z z _ =.:.:.:.:._ . . . . . . . . . . . . . . K O . . . . 0 d.g.g.g.g.g.g.g.g.g.g.h.g.2 A.Z.Z.  .       ",
"  . [ [ ! . * K 1.1.1.) ) ^ #.:.,.K K L K B 4 . o & o . o - 8 G K K K K K m o . g.g.g.g.g.g.g.g.g.g.g.g.g.g.g.. C.A.V.. .       ",
"  . [ [ [ . . K { ) ) ) ) ) :.,.K K K K K K . . * K K K K C . K K K K K K K 8 . d.g.g.g.g.g.g.g.g.g.g.g.a.j.o . . . . .         ",
"  . [ [ [ . . M @ { L K K K :.K K K K K K . . H K K K K K O . K K K K K K * * . * - - - 5 4 - . . . . . . . . M . . .           ",
"  . [ [ [ . . . . . . . m G B 5 o . . . . . . o . . . . . . . . . . . . . . . . . . . . . . . . . . . . .                       ",
"  . [ [ [ ! . .     . . . . . . . . . . . . . . . . . . . . . . . . . . . 0 . .                                                 ",
"  . [ [ [ [ [ @ .                                                     . . . . .                                                 ",
"  . w ! ! [ [ [ .                                                     . . . . .                                                 ",
"  . . . . . . . . .                                                   . . . . .                                                 ",
"        @ . . . . .                                                     . . . .                                                 ",
"                .                                                                                                               ",
"                                                                                                                                ",
"                                                                                                                                ",
"                                                                                                                                ",
"                                                                                                                                ",
"                                                                                                                                ",
"                                                                                                                                ",
"                                                                                                                                ",
"                                                                                                                                ",
"                                                                                                                                ",
"                                                                                                                                ",
"                                                                                                                                "
};
