/* XPM */
static char *c11936d7850447d1c7987236c9707f26Hy9TFcxKA7QyQvWP[] = {
/* columns rows colors chars-per-pixel */
"64 64 173 2 ",
"   c None",
".  c #000000",
"X  c #0C0103",
"o  c #070709",
"O  c #0B0A0B",
"+  c #0D070B",
"@  c #130000",
"#  c #1A0002",
"$  c #1E000B",
"%  c #16020B",
"&  c #0F0F11",
"*  c #131414",
"=  c #1A1B1B",
"-  c #171818",
";  c #230100",
":  c #2D0001",
">  c #20000D",
",  c #2D0D00",
"<  c #3B0703",
"1  c #250113",
"2  c #2D0618",
"3  c #211F28",
"4  c #222222",
"5  c #2A2A2A",
"6  c #23222B",
"7  c #2B2A35",
"8  c #343434",
"9  c #3A3A3A",
"0  c #383737",
"q  c #460009",
"w  c #580208",
"e  c #461000",
"r  c #5E1402",
"t  c #63000E",
"y  c #6C1E02",
"u  c #721E05",
"i  c #7A0016",
"p  c #472300",
"a  c #6C2102",
"s  c #742205",
"d  c #792105",
"f  c #420021",
"g  c #500027",
"h  c #4F1B34",
"j  c #531F38",
"k  c #422C35",
"l  c #5D253E",
"z  c #6B4000",
"x  c #41413C",
"c  c #3A3946",
"v  c #672543",
"b  c #692D49",
"n  c #6A304B",
"m  c #404040",
"M  c #4C4C4C",
"N  c #4F5050",
"B  c #525252",
"V  c #575858",
"C  c #5C5C5C",
"Z  c #4B4A5C",
"A  c #4F4D61",
"S  c #5A596F",
"D  c #555469",
"F  c #615F77",
"G  c #636363",
"H  c #6C6C6C",
"J  c #7C6F6E",
"K  c #777777",
"L  c #797675",
"P  c #7C7C7C",
"I  c #811E05",
"U  c #890014",
"Y  c #9D001C",
"T  c #9C1A08",
"R  c #A21C08",
"E  c #A21108",
"W  c #A4001D",
"Q  c #AC001E",
"!  c #B1001F",
"~  c #832205",
"^  c #992607",
"/  c #893C05",
"(  c #953202",
")  c #A22208",
"_  c #A72607",
"`  c #A13005",
"'  c #A93D09",
"]  c #BC3D02",
"[  c #B30020",
"{  c #90392C",
"}  c #C23705",
"|  c #D43500",
" . c #ED2D00",
".. c #F73B00",
"X. c #BB5629",
"o. c #D34902",
"O. c #CD4913",
"+. c #D54E13",
"@. c #D55515",
"#. c #E34F02",
"$. c #FD4400",
"%. c #FA4B00",
"&. c #FE5500",
"*. c #FF5C00",
"=. c #F15600",
"-. c #E65C14",
";. c #CE6811",
":. c #FF6200",
">. c #FF6B00",
",. c #FC660B",
"<. c #FF7400",
"1. c #F47800",
"2. c #E36014",
"3. c #F46515",
"4. c #F86D16",
"5. c #FF7E16",
"6. c #FD7419",
"7. c #FF7B19",
"8. c #FC7717",
"9. c #D67B3E",
"0. c #FC7A21",
"q. c #E37B33",
"w. c #E56326",
"e. c #930046",
"r. c #A80051",
"t. c #B00055",
"y. c #C4005E",
"u. c #C80E6C",
"i. c #D70068",
"p. c #DC0071",
"a. c #DE1F7C",
"s. c #E7006D",
"d. c #ED0279",
"f. c #FB0077",
"g. c #FF007E",
"h. c #F3007C",
"j. c #C23375",
"k. c #B96F48",
"l. c #A67658",
"z. c #B07955",
"x. c #B6714A",
"c. c #86756D",
"v. c #8A786C",
"b. c #8D776B",
"n. c #967864",
"m. c #C1784B",
"M. c #FF8513",
"N. c #FF821A",
"B. c #CEC300",
"V. c #EAE800",
"C. c #F5ED00",
"Z. c #EAF400",
"A. c #F2F100",
"S. c #797795",
"D. c #807C9D",
"F. c #837FA1",
"G. c gray56",
"H. c #8E8AAE",
"J. c #9290AD",
"K. c #908DB1",
"L. c #ABABAB",
"P. c #B4B4B4",
"I. c #BBB8C6",
"U. c #B8B6C5",
"Y. c #C2BFC9",
"T. c #CFCCD0",
"R. c #D1CFD0",
"E. c #D9D5D5",
"W. c #DDDADB",
"Q. c #DFDCD7",
"!. c #E1DDD9",
"~. c #E2DFE1",
"^. c #E7E4E6",
/* pixels */
"                                                                                                                                ",
"                                                                                                                                ",
"                                                                                                                                ",
"                                                                                                                                ",
"                                                                                                                                ",
"                                                                                                                                ",
"                                                                                                                                ",
"                                                                                                                                ",
"                                                                                                                                ",
"                                                                                                                                ",
"                                                                                                                                ",
"                                                                                                              .                 ",
"                                                . . . .                                                     . . . . . @         ",
"                                                . . . . .                                                   . . . . . . . . .   ",
"                                                . . . . .                                                     . [ [ [ ! ! w .   ",
"                                                . . . . .                                                     . @ [ [ [ [ [ .   ",
"                                                . . 9 . . . . . . . . . . . . . . . . . . . . . . . . . . .     . . ! [ [ [ .   ",
"                      . . . . . . . . . . . . . . . . . . . . . . . . . . . . . o . . . . . . o 5 B G m . . . . . . . [ [ [ .   ",
"          . . . M . . . . . . . . - 4 5 = = - * . * * K K K K K K . O K K K K K H . . K K K K K K :.K K K L { @ M . . [ [ [ .   ",
"        . . . . . o j.a.g.g.g.g.g.g.g.g.g.g.g.d.. 8 K K K K K K K . C K K K K * . . K K K K K K ,.:.) ) ) ) ) { K . . [ [ [ .   ",
"      . . V.A.C.. g.g.g.g.g.g.g.g.g.g.g.g.g.g.g.. o m K K K K K G 8 = o . o & o . 4 B K L K K ,.:.#.^ ) ) 1.1.1.K * . ! [ [ .   ",
"      .   Z.Z.A.2 g.h.g.g.g.g.g.g.g.g.g.g.d.0 . . . . O K . . . . . . . . . . . . . . _ :.:.:.:.=._ z z a ] *.&.) K . Y [ [ %.$.",
"    . .   A.A.. f.g.g.g.g.g.g.g.g.g.g.p.. . . . 7 H.. . K . . o P.^.^.W.!.^.^.^.^.!.C ` :.( o.) ) ) / a s &.*.J K K 5 . [ Q %.>.",
"    . . . . . r.g.g.g.g.g.g.g.g.g.g.# . . o H.H.H.H.7 .   . . . P.^.^.^.^.^.^.^.^.^.^.. ` a a a a a y a ) :.:.c.K K V . [ ! %.%.",
"    . . . g g.g.g.g.g.g.g.g.g.g.s.X v . H.H.H.H.H.H.D . . . . . K ^.^.^.^.^.^.^.^.^.^.r } :._ ~ d d ) R *.>.<.X.K K G . [ [ #   ",
"    . . g.g.g.g.g.g.g.g.g.g.g.$ % v j . H.H.H.H.H.H.D . . . . . 9 ^.^.^.^.^.^.^.^.^.^.; } :.:.&.&.&.*.:.*.:.<.<.>.K C . [ ! .   ",
"    . . g.g.g.g.g.g.g.g.s.r.. . v v . . H.H.H.H.H.H.Z . . . . . = ^.^.^.^.^.^.^.^.^.^.. 5 K K k.3.*.*.*.:.l.K l.>.c.H . [ Q .   ",
". . . . > f.d.i.y.e.. . . . l v v v + . H.H.H.H.H.H.3 . . . . . P ^.^.^.^.^.^.^.^.^.^.. = K K K K K w.:.3.K K K K K H . [ W .   ",
". . . . 2 . . . O * . X h v v v v v . . K.H.H.H.H.H.6 .   . . . ^.^.^.^.^.^.^.^.^.^.^.. . K K K K K K 3.>.x.K K K K V . [ ! .   ",
". . . . v v v v v v v v v v v v v v . . !.E.H.H.H.H.c . ^.^.~.^.^.^.^.^.^.^.^.^.^.^.^.. . K K K K K K K >.:.c.K K K 8 . [ ! .   ",
".     . v v v v v v v v v v v v v v . . !.T.H.H.H.H.c . ^.^.^.^.^.^.^.^.^.^.^.^.^.^.^.. . K K K K K K K K K K K K K 8 . [ ! .   ",
".     . v v v v v v v v v v v v v v . . !.Y.H.H.H.H.F . ^.^.^.^.^.^.^.^.^.^.^.^.~.^.^.. . K K K K K K K K K K K K K G . [ [ .   ",
".     . v v v v v v v v v v v v v v . 5 !.H.H.H.H.H.D.. ^.^.^.^.^.^.^.^.^.^.^.^.W.^.^.. . K K K b.7.9.K K K K K K K H . [ [ .   ",
".   . . v v b v v v v v v v v n v v . . !.I.H.H.H.H.S . P . 9 ^.^.^.^.^.^.^.^.^.^.^.^.. . K K N.5.5.7.K K 7.7.7.n.K H . [ ! .   ",
". . . . v v v v v v v v v v v v v v . . !.!.H.H.H.H.A . 8 . . . W.^.^.^.^.^.^.^.^.^.^.O . K M.M.5.7.q.7.7.7.q.7.0.K H . [ ! .   ",
". . . . v v v v v v v v v v n v v v X . !.!.H.H.H.H.S.. . . 5 . G.P.^.^.^.^.^.^.^.^.^.. ;.M.M.M.5.8.2.) ) R 7.7.L K H . [ i .   ",
". . . . * . . o o o 1 1 1 . . . v v X . !.Q.H.H.H.H.F.. . . . . . L.^.^.^.^.^.^.^.^.^.. 8.7._ R ) ) ) ) ~ a y O.7.l.H . [ U .   ",
". . . . g.g.g.g.g.g.g.g.g.g.g.f . n . . H.H.H.H.H.H.F.. . . . . . L.^.^.^.^.^.^.^.^.^.. X ' u u ^ ` y y y a T E -.7.H ; [ : .   ",
". . . $ g.g.g.g.g.g.g.g.g.g.g.g.f.. . . H.K.I.H.H.H.S.. . . . . . L.^.^.^.^.^.^.^.^.^.. . a y y y y y I @.6.4._ 7.7.H @ [ | ,   ",
"  . . . g.g.g.g.g.g.g.g.g.g.g.g.g.g.. . H.U.!.!.!.I.S..   . . . K ^.^.^.^.^.^.^.^.^.R.. / 5.) ^ ~ d ^ +.m.n.b.v.v.K K # [ ..$.  ",
"    . . g.g.g.g.g.g.g.g.g.g.g.g.g.g.g.. H.H.H.U.!.!.J..   . . . L.!.^.^.^.^.^.^.^.E.o . p 7.7.7.7.7.7.7.7.K K K K K K @ [  ...  ",
"    . . . . . u.g.g.g.g.g.g.g.g.g.g.g.f.. 6 S.H.H.H.S . . . . . . . . . . . . . . . . . N K n.z.b.v.0.7.7.K K K K K K . U %...  ",
"    . . C.B.. . X g.g.g.g.g.g.g.g.g.g.g.. . . . . . . . C o O 4 5 5 . = 5 5 8 V K K m . 9 K K K K K K K z.K K K K K = . e < .   ",
"      . V.C.A.x . > g.g.g.g.g.g.g.g.g.g.g.g.g.k . . . K K K K K K K . . K K K K K K K . . K K K K K K K K K K K K K . . ; Q .   ",
"      . . C.A.A.  . t.g.g.g.g.g.g.g.g.g.g.g.g.g.. 8 K K K K K K K K . . K K K K K K K K . . K K K K K K K K K K . . . . ! [ .   ",
"        . . A.A.  . . g.g.g.g.g.g.g.g.g.g.g.g.g.. . H H H H H H H H . . H G B B B M m 8 8 . o 8 5 8 8 9 9 - . . . . . < [ [ .   ",
"          . . . . . . . . . . . . . . . . . . . . . . . . . . . . . . . . . . . . . . . . . . . . . . . . . . .   . W [ [ Q .   ",
"            . . . . . .                       . . . . . .             .                                         . q [ [ [ t .   ",
"                                              . . . . . .                                                       . [ [ [ [ . .   ",
"                                              . . . . . .                                                   . . q [ [ [ [ w .   ",
"                                              . . . . . .                                                   . . w W : . . . .   ",
"                                                  . .                                                       . . . . . .         ",
"                                                                                                            . .                 ",
"                                                                                                                                ",
"                                                                                                                                ",
"                                                                                                                                ",
"                                                                                                                                ",
"                                                                                                                                ",
"                                                                                                                                ",
"                                                                                                                                ",
"                                                                                                                                ",
"                                                                                                                                ",
"                                                                                                                                ",
"                                                                                                                                "
};
