/* XPM */
static char *d57fa28e66804a70d877e198d86e524bYVBMkwvPRjStFlMP[] = {
/* columns rows colors chars-per-pixel */
"64 64 174 2 ",
"   c None",
".  c #010101",
"X  c #090202",
"o  c #0C0A03",
"O  c #0D060A",
"+  c #0B0B0C",
"@  c #070808",
"#  c #130204",
"$  c #190404",
"%  c #1C020E",
"&  c #170908",
"*  c #0F0F10",
"=  c #131414",
"-  c #1B1C1B",
";  c #171818",
":  c #220206",
">  c #2B0109",
",  c #220904",
"<  c #3A010C",
"1  c #2C1003",
"2  c #3C1003",
"3  c #250915",
"4  c #270716",
"5  c #211F28",
"6  c #262626",
"7  c #2B2B2B",
"8  c #23222C",
"9  c #2A2935",
"0  c #343434",
"q  c #3A3A3A",
"w  c #383637",
"e  c #49010F",
"r  c #451303",
"t  c #4E0110",
"y  c #570112",
"u  c #5E1109",
"i  c #6C1E09",
"p  c #721E0A",
"a  c #600114",
"s  c #76011A",
"d  c #472308",
"f  c #6C2109",
"g  c #74220A",
"h  c #79210A",
"j  c #470323",
"k  c #521B36",
"l  c #422B35",
"z  c #5E223E",
"x  c #6B4108",
"c  c #41413B",
"v  c #3A3847",
"b  c #692243",
"n  c #6C2C4A",
"m  c #404040",
"M  c #4C4C4C",
"N  c #4B4A5E",
"B  c #535353",
"V  c #5A5B5B",
"C  c #4F4D63",
"Z  c #56546B",
"A  c #5B5972",
"S  c #625F7A",
"D  c #626262",
"F  c #6D6D6D",
"G  c #7E706F",
"H  c #737273",
"J  c #7B7574",
"K  c #797979",
"L  c #811F0A",
"P  c #85031A",
"I  c #9C1C0B",
"U  c #A21D0B",
"Y  c #A2160B",
"T  c #83220A",
"R  c #99270B",
"E  c #893D0A",
"W  c #953309",
"Q  c #A2230B",
"!  c #A2290C",
"~  c #AC290B",
"^  c #A1310A",
"/  c #A93E0C",
"(  c #BD3B0A",
")  c #9C0122",
"_  c #A40123",
"`  c #AD0126",
"'  c #923828",
"]  c #CA3A09",
"[  c #EE3C01",
"{  c #E53103",
"}  c #BC5724",
"|  c #D04C09",
" . c #DE5109",
".. c #CC4B11",
"X. c #D35412",
"o. c #ED4303",
"O. c #EE4D01",
"+. c #F24D02",
"@. c #F74704",
"#. c #EC5808",
"$. c #F75E07",
"%. c #F85C07",
"&. c #F85408",
"*. c #F75C09",
"=. c #F65607",
"-. c #E15E13",
";. c #CD6B13",
":. c #DF6213",
">. c #F76307",
",. c #F76A06",
"<. c #F4670C",
"1. c #EC7A01",
"2. c #F77306",
"3. c #EC6614",
"4. c #F06D15",
"5. c #F47316",
"6. c #F97617",
"7. c #F97A17",
"8. c #F57B1B",
"9. c #F77719",
"0. c #D67D38",
"q. c #E16420",
"w. c #E17C2D",
"e. c #8F0446",
"r. c #A50352",
"t. c #BE035E",
"y. c #CF0368",
"u. c #DC026D",
"i. c #D50F71",
"p. c #C5166C",
"a. c #ED0276",
"s. c #E70977",
"d. c #F40179",
"f. c #E4147B",
"g. c #C22F76",
"h. c #D9207C",
"j. c #BA7245",
"k. c #A77756",
"l. c #B27A53",
"z. c #89776D",
"x. c #8D7A6C",
"c. c #87776E",
"v. c #9B7A62",
"b. c #957B66",
"n. c #807975",
"m. c #C37A46",
"M. c #F98316",
"N. c #F78018",
"B. c #CFC60D",
"V. c #E8E70E",
"C. c #F4ED0E",
"Z. c #ECF60F",
"A. c #F4F30F",
"S. c #7A7898",
"D. c #817DA0",
"F. c gray57",
"G. c #8480A4",
"H. c #8F8BB2",
"J. c #918DB4",
"K. c #9491B0",
"L. c #ADADAD",
"P. c #B6B6B6",
"I. c #B6B4C5",
"U. c #BDB9C8",
"Y. c #C1BDCA",
"T. c #C4C0CB",
"R. c #D0CDD1",
"E. c #DAD6D6",
"W. c #DEDBDC",
"Q. c #D2D0D1",
"!. c #E2DEDA",
"~. c #E3DFE1",
"^. c #E7E4E5",
"/. c #E8E5E7",
/* pixels */
"                                                  . . . . . . . . . . . .                                                       ",
"                                                . . . . . .         . . .                                                       ",
"                                          . . . . . . . . . .       . . . . . . . .                                             ",
"                                      . . . . . . % . . . . . . . . . . . . . . . . . .                                         ",
"                                    . . V.C.. d.d.d.d.= b b b b b b b 4 % d.d.. .     . .                                       ",
"                                  . o A.C.B.. d.d.d.d.. b b b b b b b . a.d.d.j . A.Z.V.. .                                     ",
"                                . . A.A.A.. . d.d.d.d.. b b n b b b b . s.d.d.d.. A.Z.A.. .                                     ",
"                                . . A.A.c . p.d.d.d.d.+ b b b b b b b . y.d.d.d.r.. C.A.. .                                     ",
"                                . .     . O d.d.d.d.d.+ b b b b b b b + t.d.d.d.d.a.4 . . M                                     ",
"                                . . . . % d.d.d.d.d.d.+ b b b b b b b = e.d.d.d.d.d.d.d.+ .                                     ",
"                                . . . r.d.d.d.d.d.d.d.3 b b b b b b b . . d.d.d.d.d.s.d.g..                                     ",
"                                . . d.d.d.d.d.d.d.d.d.3 b b b b b b b O . d.d.d.d.d.d.d.h.. .                                   ",
"                                  . d.d.d.d.d.d.d.d.d.3 b b b b b b b k . u.d.d.d.d.d.d.d.. .                                   ",
"                                  . d.d.d.d.d.d.d.d.d.. b b b b b b b b . r.d.d.d.d.d.d.d.. .                                   ",
"                                  . d.d.d.d.d.d.d.d.d.. n b b b b b b b z . d.d.d.d.d.d.d.@ .                                   ",
"                                  . d.d.d.d.d.d.d.d.j . b b n b b b b b b @ % d.d.d.d.d.d.@ .                                   ",
"                                  . d.d.d.d.d.d.d.a.@ b b b b b b b b b b b & u.d.d.d.d.d.@ .                                   ",
"                                  . d.d.d.d.d.d.d.. n b b b b b b b b b b b b O d.d.d.d.d.= .                                   ",
"                                  . d.d.d.d.d.d.. . . O O . . . . . . @ + + k b % d.d.d.d.6 .                                   ",
"                                  . d.d.d.d.a.. . . . . @ . . 7 @ . . . . . . . . i.d.d.d.6 .                                   ",
"                                  . d.d.d.X . H.H.H.H.!.!.!.!.!.!.!.!.J.H.H.H.H.. @ d.d.d.; .                                   ",
"                                  . d.d.d.. 5 H.I.J.H.!.!.!.Y.J.T.R.E.H.H.H.H.H.+ . f.d.d.; .                                   ",
"                                  . d.d.d.. S.H.!.U.H.H.H.H.H.H.H.H.H.H.H.H.H.H.H.. w d.d.= .                                   ",
"                          . . . . . d.d.l . H.I.!.H.H.H.H.H.H.H.H.H.H.H.H.H.H.H.H.. . s.f.= .                                   ",
"                          . . . . . . . . . H.!.!.H.H.H.H.H.H.H.H.H.H.H.H.H.H.H.H.9 . . . . . . . . . .                         ",
"                        . . . . . . . 0 . . H.!.U.H.H.H.H.H.H.H.H.H.H.H.H.H.H.H.H.H.. + 7 = . . . . . .                         ",
"                        . . . . . . F K . . A K.S.S.G.G.S.C A D.S v v 8 5 N Z Z 9 @ . m K = . q . . . .                         ",
"                          . . . . . F K H . . . . . . . . . . . . . . . . . . . . . * K K K @ . . . . .                         ",
"                          . . . . . F K K D .     . . . . 0 K ^./.^./.  . . . .   K K K K K . . . . .                           ",
"                                  . F K K + . . . . . . . . @ /././.^.. . . . . . . . K K K . .                                 ",
"                                  . F K K * . . . . . . 6 . q /././.^.. . . . . . . . K K K . .                                 ",
"                                  . F K K - . . . . . . . @ ^././././.@ . . . . . + . K K K @ .                                 ",
"                                  . F K K 7 . L.H . . + F.W././././././.K ; q H P.P.. F K K @ .                                 ",
"                                  . F K K 7 . !./.L.L.L.P./././././././././././././.. 0 . . . .                                 ",
"                                  . @ . . . . /./././././././././././././././.^./.^.. ; V * . .                                 ",
"                                . . . . . ; . /./././././././././././././././././.W.. + K K . .                                 ",
"                                  . F K K 7 . /./././././././././././././././././.!.. @ K K @ .                                 ",
"                                  . D K K 7 . /./././././././././././././././././.^.. + K K @ .                                 ",
"                                  . B K K 0 . /././././././././././././././././././.. = K K @ .                                 ",
"                                  . V K K V . /././././././././././././././././././.. + = K + .                                 ",
"                                  . B K K H . /././././././.^.W.~.^././././././././.. . . F + .                                 ",
"                                  . M K K K . E./././././././././././././././././.!.. 6 . . . .                                 ",
"                                  . m K K m . + Q././././././././././././.^././.^.V . B K . . .                                 ",
"                                  . w K @ . . . . . . . . = @ @ @ . . . . . , u . ^ ~ J K K . .                                 ",
"                                  . 0 . . q B d E . o 9.;.. . . . . . @ ; 6 ] ( ^ >.>.J K K . .                                 ",
"                                  . . . H K K 6.6.f / 6.M.K K K K K K K K K >.>.f W >.K K K X .                                 ",
"                                  . + K K K v.6.Q i p ~ M.M.K K K K K K K K >.~ f | >.K K K . .                                 ",
"                                  . 7 K K K l.6.R i p U M.M.N.K K K K K K j.&.T f ! >.<.K K + .                                 ",
"                                  . 7 K K K x.6.T i R Q 7.7.7.x.K K K K K 3.&.h f Q #.>.<.K 6 .                                 ",
"                                  . 0 K K K x.6.h i ^ Q 5.6.7.8.K K K K K =.&.h f Q !  .$.$.B .                                 ",
"                                  . w K K K 9.6.R i i Q :.w.6.0.K K K K q.%.%.Q i E x R Q K D .                                 ",
"                                  . q K K K 6.6.X.L i Q Q 9.K K K K K 3.$.$.>.U f f x Q Q K m .                                 ",
"                                  . q K K l.6.6.m.X.i T Q 6.K K K K ,.,.3.$.%.$.Q g f Q Q K + .                                 ",
"                                  . ; K K K K K v.5.f f U 6.9.K K K >.j.K k.>.,.$.#.( 1.Q J . .                                 ",
"                      . . . .     . . K K K K K x.4.I i 6.w.6.K K K z.K K K 2.2.$.%.=.1.Q ' .       . .                         ",
"                      . . . .     . . H K K K K x.~ Y ..6.6.6.K K K K K K k.2.} c.G =.1.' # .   . . . . .                       ",
"                        . u e . .   . @ K K K K x.5.-.6.n.8.b.K K K K K K ,.,.K K K Q K K M . . # ` X .                         ",
"                        . ) ` ` < . . . H K K K K 6.6.k.K K K K K K K K K z.K K K K K = . . . . ` ` . .                         ",
"                        . > ` ` ` ) . . . - K K K F F F H F F F D w w V F F V D V 7 @ . . . X ` ` ` . .                         ",
"                        . . ` ` ` ` < . . . . # $ # : X X X X X X X X . . . . . . X ) ` ` ` ` ` ` ` . $                         ",
"                          . ` ` ` ` ` ` : r P ` ` ` ` ` ` ` ` ` ` ` ` ` ` ` ` ` ` ` ` ` ` ` ` ` ` ` .                           ",
"                          . t . a _ ` ` ` 2 +.{ o.] > P s ` ` ` ` ` ` ` _ _ ` ` ` _ ` ` ` ` ` ` ` y .                           ",
"                          . . . . . . . . X [ [ o.1 . . . . . . . . . . . . . $ O.O.+.. . . . X X . .                           ",
"                                                                                +.,.@.                                          "
};
