/* XPM */
static char *b4c57672058c4568fbcd5a7be0e3ce5d46sVbudTXQogLG9b[] = {
/* columns rows colors chars-per-pixel */
"64 64 198 2 ",
"   c None",
".  c gray15",
"X  c #272727",
"o  c #282827",
"O  c #252929",
"+  c #272828",
"@  c #262929",
"#  c #282828",
"$  c #292828",
"%  c #292928",
"&  c #282929",
"*  c gray16",
"=  c #2B2828",
"-  c #2A2929",
";  c #292A29",
":  c #292A2A",
">  c #2A2A2A",
",  c #2B2A2A",
"<  c #2A2B2B",
"1  c gray17",
"2  c #2C2B2B",
"3  c #2B2C2B",
"4  c #2B2C2C",
"5  c #2C2C2C",
"6  c #2D2C2C",
"7  c #2D2D2C",
"8  c #2C2D2D",
"9  c #2D2D2D",
"0  c #2E2E2D",
"q  c #2D2E2E",
"w  c gray18",
"e  c #2F2E2E",
"r  c #2E2F2E",
"t  c #2F2F2E",
"y  c #2E2F2F",
"u  c #302F2F",
"i  c #313131",
"p  c #323131",
"a  c #333131",
"s  c #333231",
"d  c #323232",
"f  c #333232",
"g  c #333332",
"h  c #343232",
"j  c #343332",
"k  c #343333",
"l  c #343433",
"z  c #353433",
"x  c #343434",
"c  c #353434",
"v  c #353535",
"b  c #363434",
"n  c #363534",
"m  c gray21",
"M  c #363737",
"N  c gray22",
"B  c #393838",
"V  c #383939",
"C  c #393939",
"Z  c #393A3A",
"A  c #3A3A3A",
"S  c #3A3B3B",
"D  c gray23",
"F  c #3B3C3C",
"G  c #3C3C3C",
"H  c #3C3D3C",
"J  c #3D3D3C",
"K  c #3C3D3D",
"L  c gray24",
"P  c #3E3D3C",
"I  c #3D3E3E",
"U  c #3E3E3E",
"Y  c #3F3F3F",
"T  c #41403F",
"R  c #3F4040",
"E  c gray25",
"W  c #414141",
"Q  c #434241",
"!  c #414242",
"~  c gray26",
"^  c #424342",
"/  c #434342",
"(  c #424343",
")  c #434343",
"_  c #444342",
"`  c #434443",
"'  c #434444",
"]  c #444444",
"[  c #444545",
"{  c #464646",
"}  c #464747",
"|  c gray28",
" . c #484746",
".. c #484747",
"X. c #4A4947",
"o. c #474848",
"O. c #484848",
"+. c #484949",
"@. c #494949",
"#. c #4B4A49",
"$. c #494A4A",
"%. c #494B4B",
"&. c gray29",
"*. c #4A4B4B",
"=. c #4B4B4B",
"-. c #4B4C4C",
";. c #4C4C4C",
":. c gray30",
">. c #4D4E4D",
",. c #4F4E4D",
"<. c #4F4F4D",
"1. c #4D4E4E",
"2. c #4E4E4E",
"3. c #4E4F4F",
"4. c gray31",
"5. c #504F4D",
"6. c #504F4E",
"7. c #4F504F",
"8. c #4F514F",
"9. c #51504F",
"0. c #52514F",
"q. c #4F5050",
"w. c #505050",
"e. c #505151",
"r. c #515151",
"t. c #535250",
"y. c #525251",
"u. c #535251",
"i. c #535353",
"p. c #545351",
"a. c #545352",
"s. c #535453",
"d. c #555452",
"f. c #555453",
"g. c #565453",
"h. c #565553",
"j. c gray33",
"k. c #555454",
"l. c #555555",
"z. c #565554",
"x. c #575554",
"c. c #565654",
"v. c #565655",
"b. c gray34",
"n. c #5A5A5A",
"m. c #5C5B5A",
"M. c #5B5C5C",
"N. c #5D5D5D",
"B. c #606060",
"V. c gray38",
"C. c #636262",
"Z. c gray40",
"A. c #686868",
"S. c #6A6A6A",
"D. c gray42",
"F. c #6C6C6C",
"G. c #6D6D6D",
"H. c #727373",
"J. c gray45",
"K. c #777777",
"L. c #797979",
"P. c gray49",
"I. c #7E7E7E",
"U. c #808080",
"Y. c #888888",
"T. c gray54",
"R. c #8E8D8D",
"E. c #939393",
"W. c #959595",
"Q. c #979797",
"!. c #989898",
"~. c #9A9A9A",
"^. c #9D9D9D",
"/. c #9F9F9F",
"(. c #A0A0A0",
"). c #A9AAAA",
"_. c gray67",
"`. c #ACACAC",
"'. c #B1B1B1",
"]. c #B2B2B2",
"[. c gray70",
"{. c #B4B4B4",
"}. c gray71",
"|. c #B6B6B6",
" X c #B9B9B9",
".X c gray73",
"XX c gray74",
"oX c #BCBEBE",
"OX c gray",
"+X c #C0C0C0",
"@X c #C1C1C1",
"#X c #C3C3C3",
"$X c #C6C6C6",
"%X c gray79",
"&X c #CACACA",
"*X c #CBCBCB",
"=X c gray80",
"-X c #CDCDCD",
/* pixels */
"                                                                                                                                ",
"                                                              # # # # .                                                         ",
"                                                      # # # # # # # # # # #                                                     ",
"                                                # # # # # # # # # # # # # # # # # #                                             ",
"                                            # # # # # # # # # l *.*.*.+ 0 # # # # # # #                                         ",
"                                        # # # # *.*.*.*.*.*.*.*.*.*.+ + A *.*.0 # # # # # #                                     ",
"                                    o # # # u *.*.*.*.*.*.*.*.*.*.p + 4 *.w.w.3.*.*.*.' # # #                                   ",
"                                  # # # # } *.w.w.w.w.w.w.w.w.w.w.+ + w.w.w.w.w.w.w.3.*.*.u # # #                               ",
"                                # # # + + 3.w.w.w.w.w.w.w.w.w.w.w.+ + w.w.w.w.w.w.w.w.w.3.*.# # # #                             ",
"                            . # # # *.+ + w.w.w.w.w.w.w.w.3.w.w.w.A 3.w.w.3.w.w.w.w.w.w.w.7.*.# # # # #                         ",
"                          # # # o.*.` + h w.w.w.w.w.w.w.w.w.w.w.w.w.w.w.w.w.w.w.w.w.w.w.w.w.7.E # # # # #                       ",
"                        # # # *.*.3.R + E w.w.w.w.w.w.w.w.w.w.w.w.w.w.w.w.w.w.w.w.w.w.w.3.+ + + + # # # # #                     ",
"                      # # # *.*.3.w...+ } w.w.w.w.w.w.w.w.w.w.w.w.w.w.w.w.w.w.w.w.w.w.w.+ + + I I } v # # # #                   ",
"                    # # # *.*.3.w.w.w.# 3.w.w.w.w.w.w.N.+X-X-X-X-X-X-X*XD.w.w.w.w.w.w.w.*.w.w.w.w.w.3.} 0 # #                   ",
"                    # # I *.-.w.w.w.w.w.w.w.w.w.w.E.-X-X-X-X-X-X-X-X-X-X-X-X*Xw.w.w.w.w.w.w.w.w.w.w.w.3.*.u # #                 ",
"                  # # # *.*.w.w.w.w.w.w.w.w.w.w.-X-X-X-X!.2 # # 3.w.+ + J.-X-X-X'.w.w.w.w.w.w.w.w.w.w.w.-.*.# # #               ",
"                # # # *.*.w.w.7.w.w.w.w.w.w. X-X-X-X# # # # # # 3.w.. # # # D.-X-X-XF.w.w.w.w.w.w.w.w.w.w.*.*.# # #             ",
"                # # + *.w.w.w.w.w.w.w.w.w.-X-X*X. # # # # . . . 3.w.. . + # # 4 -X-X-X Xw.w.w.w.w.w.w.w.w.w.*.0 # #             ",
"              # # + + 7.w.w.w.w.w.w.w.N.-X-X-X# . # _ h.# # . . 3.w.. . + h.# # # *X-X-X-Xw.w.w.w.3.w.w.w.w.-.*.# #             ",
"              # # + + *.w.w.w.w.w.w.l.-X-XF.# # # h.h.    # # # 3.w.. + +   h.# # + U.-X-X*Xw.w.w.w.w.w.w...# I # # #           ",
"            # # *.0 + p w.w.w.w.w.w.-X-XM.# # # h.h.      # # . *.w.. + +   h.h.# # + -.-X-X{.w.w.w.w.w.0 + + + + # #           ",
"            # # *.3.+ + w.w.w.w.w.-X-XL.# # 2 h.h.          # # *.w.. + #     h.p.# # +   -X-XB.w.w.w.w.3.I A + + # # #         ",
"          # # *.*.w.h p 3.w.w.w.OX-X).# # 0 h.l.            # # *.w.. + +     l.h.6.# # + *X-X-Xw.w.w.w.w.w.w.w.*.# # #         ",
"          # # *.*.w.w.w.w.w.w.B.-XOX# # X.h.                # 0 3.w.. +           h.3.# # + -X-X Xw.w.w.w.w.w.w.3.0 # #         ",
"        . # A *.w.w.w.7.w.w.w.-X!.# # w.h.                  # A 3.w.. +             h.6.# #   -X-Xw.w.w.w.w.w.w.w.' # # #       ",
"        # # ' *.w.7.w.w.w.w.{.-X# # h.h.l.                  # I 4 w.. +             h.h.` # # -X-X{.w.w.w.w.w.w.w.*.# # #       ",
"        # # o.*.7.w.w.w.w.w.-XA # 0.h.l.                    # p + . . + #             h.l.# #   -X-Xw.w.w.w.w.w.w.-.# # #       ",
"        # # *.7.7.w.w.w.w.Q.-X# # h.h.                      # # # # + + +               l.E # # -X-Xw.w.w.w.w.w.w.3.# # #       ",
"        # # *.7.7.w.w.w.w.*X*X# p h.                        # # # # # # + #             h.h.# # -X-XN.w.w.w.w.w.w.w.0 # #       ",
"        # # 7.7.7.7.7.w.w.-X+X# ..h.                    # # # # # # # # # +               h.# # *X-XU.w.w.w.w.w.p v A # #       ",
"        # # 7.7.7.7.7.w.w.-X$X# I h.                  # # # # # # p # # ).v               h.# # ).-Xw.w.w.w.3.h + + + # #       ",
"        # # 3.7.7.7.7.w.w.-X*X# p h.              # # # # # (.).!.} # # /.0 # #             0 # D.-Xn.w.w.w.3.w.3.3.+ # # .     ",
"      . # # 3.7.7.7.7.w.w.-X-X# 0 h.          # + + + v # # w.).)./.# # # # # # # # # #     v # 3.-X/.w.w.w.3.w.w.w.3.F # #     ",
"        # # 3.7.7.7.7.w.w.-X-X# 0 h.l.      + + + . # E # # # # I } # # # # + + # # # # # # # # I -X/.w.w.w.w.w.w.w.3.*.# #     ",
"        # # *.7.7.7.7.w.w.-X-X# 0 h.    # + + # . . w.w.E # # # # # # # # 0 + + +       0 0 0 # U.-XU.w.w.w.w.w.w.w.-.*.# #     ",
"        # # *.s.7.7.w.w.w.'.-X# # h.I + + + . . E w.w.3.+ # # # # # # # # + . + + + + #     I # $X-Xw.w.w.w.w.w.w.w.*.*.# #     ",
"        # # A + I w.w.w.l.-X-X# # w.I + # . # w.w.w.# + + + # # # # } # # + . } 3.+ + + # + # # -X-Xw.w.w.w.w.w.w.3.*.I # #     ",
"        # # o.+ + + 3.w.w.Z.-Xp # + . . . } w.w.E + # # # # + + 4 + + #   + + } w.w.# . # # + + -X-Xw.w.w.w.w.w.w.-.*.# # #     ",
"        # # *.*.+ + + + w.w.*XOX+ + + . w.w.w.# + # # #                     + + E w.w.E . . + !.-XP.w.w.7.w.w.w.w.*.*.# # #     ",
"        . # # *.w.w.l + *.w.*X*X. + + w.w.E + + # # #                         + + # 3.w.. + + -X-Xw.w.w.w.w.w.w.w.*.*.# # .     ",
"          # # -.w.w.w.w.w.w.T.*X+X# p w.0 + w.# # #                             + + + . . + # -X*Xw.w.w.w.w.# } w.*.} # # #     ",
"          # # v w.q.w.w.w.w.w.*X*X3.# # # + h # #                                 # + + + # -X-Xw.w.w.w.w.w.+ + I E # # #       ",
"            # # w.w.w.w.w.w.w.w.*X*X} # # # 0.p h.                                *.# + # -X-X'.w.w.w.w.w.w.} + + E # # #       ",
"            # # I w.w.w.w.w.w.w.w.*X*Xv # # # h.h.h.h.                          l.# # + -X-X-Xw.w.w.w.w.w.w.w.4 + # # #         ",
"            # # # *.w.w.w.q.w.w.w.N.*X*XK.. . # E h.h.h.                      l.# # + *X-X-Xl.w.w.w.w.w.w.w.w.-.# # # #         ",
"              # # ' w.w.w.w.w.w.w.w.l.*X*XA # # # # 6.h.h.h.                h.# # # *X-X-XJ.w.w.w.w.w.w.w.w.w.*.# # #           ",
"                # # 3.w.w.w.w.w.w.w.w.w.w.-X-X. # # # 0 h.h.h.        l.h.3.# # p -X-X-XT.w.w.w.w.w.w.w.w.w.-.v # # #           ",
"                # # o.w.w.w.w.w.w.w.w.w.w.w.-X-X-X. # # # # A w.p.h.p.*.# # # + -X-X-XR.w.w.w.w.w.w.w.w.w.3.*.# # #             ",
"                # # # *.w.w.3.-.I # *.w.w.w.w.$X-X*X*X. # # # # # # # # # # p -X-X-XQ.w.w.w.w.w.w.w.w.w.w.*.# # # #             ",
"                  # # E E # + + + + 0 w.w.w.w.w.B.-X-X-X  . . # # # # A m.-X-X-X-Xw.w.w.w.w.3.+ R w.w.7.*.# # # #               ",
"                  . # # *.# # 0 I w.w.w.w.w.w.w.w.w.  -X-X-X-X*X-X-X-X-X-X-X-Xn.w.w.w.w.w.w.w.+ + w.3.*.*.# # #                 ",
"                    # # # # *.w.w.w.w.w.w.w.w.w.w.w.w.w.w.w.P.-X-X-X-X`.Q.w.w.w.w.w.w.3.w.w.w.+ + 3.*.*.# # #                   ",
"                      # # # # } 3.w.w.w.7.w.w.w.w.w.w.w.w.w.w.w.w.w.w.N.p.h.w.w.w.w.w.w.w.w.w.p + E *.# # #                     ",
"                        # # # # 0 -.w.w.w.w.w.w.w.w.A w.w.w.w.w.w.w.w.w.w.w.w.w.w.w.w.w.w.w.w.*.+ + # # # #                     ",
"                          # # # # # *.*.3.w.w.w.w.} + F 3.7.w.w.w.w.w.7.w.w.*.+ p w.w.w.w.w.*.*.# # # # #                       ",
"                            # # # # # *.*.*.3.w.w.+ + w.w.w.w.w.w.w.w.w.w.w.+ + 3.w.w.w.3.*.*.*.# # #                           ",
"                              # # # # # # *.*.o.+ + + w.w.w.w.w.w.w.w.w.w.h + A w.w.w.3.*.v # # # #                             ",
"                                  # # # # # # # + 3 *.-.3.w.w.w.w.w.w.w.3.+ + -.*.E # # # # # # #                               ",
"                                    # # # # # # # # # # # # v I I I v 0 # # # # # # # # # # #                                   ",
"                                        # # # # # # # # # # # # # # # # # # # # # # #                                           ",
"                                                  # # # # # # # # # # # # # # #                                                 ",
"                                                                                                                                ",
"                                                                                                                                ",
"                                                                                                                                "
};
